<svg width="256" height="204" viewBox="0 0 256 204" fill="none" xmlns="http://www.w3.org/2000/svg">
<g clip-path="url(#clip0_120_29)">
<path d="M53.172 0C38.565 0 27.756 12.785 28.24 26.65C28.705 39.97 28.101 57.223 23.758 71.292C19.402 85.402 12.034 94.34 0 95.488V108.444C12.034 109.592 19.402 118.53 23.758 132.641C28.101 146.71 28.705 163.961 28.24 177.282C27.756 191.145 38.565 203.932 53.174 203.932H202.847C217.455 203.932 228.261 191.147 227.777 177.282C227.313 163.962 227.916 146.71 232.259 132.641C236.618 118.531 243.966 109.591 256 108.444V95.488C243.966 94.34 236.618 85.402 232.26 71.292C227.916 57.225 227.313 39.971 227.777 26.65C228.261 12.787 217.455 0 202.847 0H53.17H53.172ZM173.56 125.533C173.56 144.625 159.32 156.203 135.688 156.203H95.458C94.3074 156.203 93.204 155.745 92.3905 154.932C91.577 154.118 91.12 153.015 91.12 151.864V52.068C91.1199 51.4981 91.232 50.9338 91.45 50.4072C91.668 49.8807 91.9876 49.4022 92.3905 48.9992C92.7934 48.5962 93.2718 48.2765 93.7983 48.0584C94.3248 47.8403 94.8891 47.728 95.459 47.728H135.458C155.163 47.728 168.095 58.403 168.095 74.791C168.095 86.294 159.395 96.592 148.312 98.395V98.996C163.401 100.651 173.56 111.1 173.56 125.533ZM131.3 61.483H108.363V93.883H127.683C142.617 93.883 150.853 87.869 150.853 77.119C150.853 67.046 143.771 61.483 131.301 61.483H131.3ZM108.363 106.739V142.444H132.145C147.693 142.444 155.931 136.205 155.931 124.479C155.931 112.751 147.464 106.737 131.145 106.737H108.363V106.739Z" fill="#7E13F8"/>
</g>
<defs>
<clipPath id="clip0_120_29">
<rect width="256" height="204" fill="white"/>
</clipPath>
</defs>
</svg>
