<svg width="256" height="256" viewBox="0 0 256 256" fill="none" xmlns="http://www.w3.org/2000/svg">
<g clip-path="url(#clip0_120_64)">
<mask id="mask0_120_64" style="mask-type:alpha" maskUnits="userSpaceOnUse" x="0" y="0" width="256" height="256">
<path d="M128 256C198.692 256 256 198.692 256 128C256 57.3075 198.692 0 128 0C57.3075 0 0 57.3075 0 128C0 198.692 57.3075 256 128 256Z" fill="white"/>
</mask>
<g mask="url(#mask0_120_64)">
<path d="M128 256C198.692 256 256 198.692 256 128C256 57.3075 198.692 0 128 0C57.3075 0 0 57.3075 0 128C0 198.692 57.3075 256 128 256Z" fill="black"/>
<path d="M212.634 224.028L98.335 76.8H76.8V179.157H94.028V98.68L199.11 234.446C203.844 231.277 208.362 227.797 212.634 224.028Z" fill="url(#paint0_linear_120_64)"/>
<path d="M163.556 76.8H180.623V179.2H163.556V76.8Z" fill="url(#paint1_linear_120_64)"/>
</g>
</g>
<defs>
<linearGradient id="paint0_linear_120_64" x1="152.369" y1="165.689" x2="197.729" y2="221.911" gradientUnits="userSpaceOnUse">
<stop stop-color="white"/>
<stop offset="1" stop-color="white" stop-opacity="0"/>
</linearGradient>
<linearGradient id="paint1_linear_120_64" x1="172.09" y1="76.8" x2="171.801" y2="151.999" gradientUnits="userSpaceOnUse">
<stop stop-color="white"/>
<stop offset="1" stop-color="white" stop-opacity="0"/>
</linearGradient>
<clipPath id="clip0_120_64">
<rect width="256" height="256" fill="white"/>
</clipPath>
</defs>
</svg>
