<svg width="256" height="256" viewBox="0 0 256 256" fill="none" xmlns="http://www.w3.org/2000/svg">
<g clip-path="url(#clip0_126_2)">
<path d="M50.699 159.089L206.924 106.936C203.802 87.413 201.578 74.371 199 64.418C196.223 53.712 194.022 50.848 193.158 49.855C190.145 46.408 186.395 43.6842 182.185 41.886C180.969 41.366 177.56 40.158 166.531 40.822C154.862 41.526 139.544 43.91 115.286 47.751C91.036 51.591 75.726 54.064 64.416 56.992C53.716 59.769 50.843 61.977 49.85 62.842C46.4084 65.8569 43.6872 69.6057 41.887 73.812C41.367 75.027 40.158 78.436 40.823 89.47C41.527 101.135 43.912 116.458 47.753 140.71C48.826 147.51 49.794 153.592 50.699 159.089V159.089Z" fill="url(#paint0_linear_126_2)"/>
<path d="M7.62503 147.063C0.198025 100.143 -3.52397 76.683 4.52703 57.849C8.7244 48.0248 15.0819 39.273 23.127 32.244C38.55 18.778 62.007 15.066 108.923 7.63297C155.854 0.189973 179.313 -3.52103 198.16 4.52797C207.98 8.72498 216.728 15.0807 223.755 23.123C237.232 38.549 240.945 62.009 248.373 108.937C255.808 155.857 259.522 179.324 251.47 198.151C247.276 207.974 240.921 216.726 232.879 223.755C217.456 237.229 193.99 240.942 147.067 248.375C100.151 255.808 76.685 259.521 57.854 251.471C48.034 247.274 39.2858 240.918 32.259 232.876C18.781 217.45 15.068 193.99 7.63303 147.063H7.62503ZM90.387 230.388C102.952 229.628 119.135 227.092 143.089 223.298C167.051 219.506 183.209 216.914 195.407 213.753C207.212 210.689 212.654 207.704 216.167 204.632C221.336 200.113 225.421 194.487 228.117 188.173C229.957 183.885 231.117 177.788 230.381 165.61C229.621 153.048 227.084 136.861 223.291 112.905C219.497 88.95 216.911 72.779 213.751 60.593C210.685 48.783 207.692 43.343 204.627 39.83C200.11 34.6598 194.485 30.574 188.172 27.876C183.882 26.036 177.784 24.876 165.602 25.611C153.037 26.371 136.862 28.908 112.901 32.701C88.947 36.501 72.78 39.086 60.591 42.246C48.778 45.311 43.344 48.303 39.831 51.368C34.6592 55.8859 30.5719 61.5113 27.873 67.826C26.04 72.115 24.88 78.212 25.616 90.39C26.376 102.96 28.906 119.138 32.707 143.094C36.501 167.05 39.086 183.221 42.247 195.407C45.312 207.217 48.297 212.657 51.371 216.17C55.8886 221.34 61.5128 225.426 67.826 228.124C72.116 229.964 78.206 231.124 90.396 230.388H90.387V230.388Z" fill="url(#paint1_linear_126_2)"/>
</g>
<defs>
<linearGradient id="paint0_linear_126_2" x1="100.28" y1="49.1852" x2="121.407" y2="181.154" gradientUnits="userSpaceOnUse">
<stop stop-color="#66E3FF"/>
<stop offset="1" stop-color="#7064F9"/>
</linearGradient>
<linearGradient id="paint1_linear_126_2" x1="100.28" y1="-0.000305947" x2="140.928" y2="253.903" gradientUnits="userSpaceOnUse">
<stop stop-color="#66E3FF"/>
<stop offset="1" stop-color="#7064F9"/>
</linearGradient>
<clipPath id="clip0_126_2">
<rect width="256" height="256" fill="white"/>
</clipPath>
</defs>
</svg>
